# Blender v2.80 (sub 74) OBJ File: 'point_volume.blend'
# www.blender.org
mtllib point_volume.mtl
o Sphere
v 0.040437 0.895069 -0.472066
v -0.054208 0.649994 -0.768489
v -0.184264 0.294830 -0.949481
v 0.098295 0.098969 -0.998027
v 0.096849 -0.180741 -0.983340
v 0.087872 -0.461874 -0.892157
v -0.033779 -0.790020 -0.625941
v 0.230140 0.638967 -0.744335
v 0.301627 0.313606 -0.909302
v 0.210324 -0.706054 -0.680304
v 0.434324 0.637827 -0.643466
v 0.474291 0.000000 -0.887336
v 0.454393 -0.292875 -0.850110
v 0.347961 -0.834889 -0.442263
v 0.066921 -0.929162 -0.379179
v 0.423958 0.840774 -0.355454
v 0.604393 0.300872 -0.748774
v 0.683308 -0.468326 -0.573807
v 0.406511 -0.639556 -0.668488
v 0.215369 0.926968 -0.326631
v 0.604885 0.638968 -0.491032
v 0.766101 -0.082155 -0.649784
v 0.824544 0.308530 -0.490252
v 0.868253 -0.197140 -0.465214
v 0.846822 0.491395 -0.230162
v 0.962005 0.107599 -0.283089
v 0.845779 -0.481431 -0.266522
v 0.582892 -0.777587 -0.269687
v 0.138044 -0.988066 -0.138043
v 0.692733 0.712804 -0.155800
v 0.997131 -0.099452 -0.096756
v 0.357323 -0.926351 -0.158055
v 0.457054 0.897015 -0.047259
v 0.893818 0.461874 0.053132
v 0.978121 0.196721 0.113689
v 0.987702 -0.100271 0.198552
v 0.885356 -0.475434 0.084310
v 0.704242 -0.717473 0.007740
v 0.718911 0.656402 0.269805
v 0.198327 0.982276 0.045650
v 0.850774 0.293134 0.456694
v 0.882839 -0.099452 0.473526
v 0.819276 -0.391921 0.429269
v 0.685979 -0.638319 0.366664
v 0.460649 -0.888480 0.120405
v 0.490639 0.840774 0.255660
v 0.654910 0.497100 0.580100
v 0.520163 -0.649995 0.566003
v 0.254233 0.931025 0.290998
v 0.644627 0.071222 0.771333
v 0.686816 -0.294160 0.680109
v 0.429475 0.468325 0.782123
v 0.448886 0.196721 0.876440
v 0.383064 -0.497100 0.786566
v 0.320477 0.729999 0.624164
v 0.373807 -0.103956 0.936054
v 0.090034 -0.475433 0.884793
v 0.103537 -0.789159 0.624997
v 0.282562 -0.891712 0.381169
v 0.177152 0.838086 0.529777
v 0.096398 0.481430 0.881524
v 0.079318 0.196721 0.981506
v 0.097535 -0.197140 0.980191
v -0.088107 0.008211 0.999783
v -0.236380 -0.308531 0.929701
v -0.255895 0.557974 0.793221
v -0.244441 0.318416 0.923172
v -0.471574 0.204561 0.861881
v -0.172667 -0.654204 0.751946
v 0.077528 -0.984947 0.187168
v -0.111155 0.924887 0.374306
v -0.249343 0.838086 0.499874
v -0.211558 0.727273 0.668962
v -0.481043 -0.091051 0.883627
v 0.056622 0.999462 -0.105933
v -0.561979 0.475432 0.689307
v -0.767425 0.189027 0.621112
v -0.575326 -0.385202 0.726658
v -0.466647 -0.660982 0.598615
v -0.298650 -0.834055 0.471967
v -0.148680 -0.928309 0.358945
v -0.545602 0.709304 0.451646
v -0.780443 -0.107597 0.629684
v -0.694282 -0.491393 0.536707
v -0.074709 0.988066 0.180363
v -0.698169 -0.638423 0.342898
v -0.426744 -0.898850 0.167798
v -0.750535 0.638667 0.209638
v -0.826582 0.445506 0.379072
v -0.962005 0.107598 0.283090
v -0.924802 -0.285629 0.287997
v -0.420850 0.901345 0.175555
v -0.883051 0.480538 0.010555
v -0.999900 0.098554 0.000343
v -0.762544 -0.654559 0.105016
v -0.990217 -0.126587 -0.131853
v -0.923828 -0.385203 -0.074656
v -0.558347 -0.834055 0.013893
v -0.187074 -0.982219 0.077489
v -0.851896 0.475431 -0.255415
v -0.937146 0.196721 -0.302326
v -0.740516 -0.638667 -0.242667
v -0.602108 0.799019 -0.150259
v -0.889961 0.008210 -0.464000
v -0.857578 -0.285629 -0.450289
v -0.395093 -0.850759 -0.379951
v -0.318094 0.928498 -0.216398
v -0.589270 0.712212 -0.393738
v -0.689307 0.475431 -0.561979
v -0.746030 0.115626 -0.667863
v -0.598269 -0.633225 -0.505036
v -0.490252 0.308532 -0.824542
v -0.616475 -0.300874 -0.738858
v -0.298937 -0.929969 -0.245331
v -0.258618 0.844351 -0.483837
v -0.314629 0.636728 -0.719714
v -0.464000 -0.008211 -0.889961
v -0.260919 -0.475431 -0.850226
v -0.374470 -0.660982 -0.660205
v -0.081764 -0.999735 -0.081763
v -0.161380 0.983237 -0.124417
v -0.259574 -0.112815 -0.969007
vt 0.710687 0.963395
vt 0.657293 0.875000
vt 0.747728 0.840196
vt 0.702544 0.718280
vt 0.759893 0.725021
vt 0.734374 0.348939
vt 0.702271 0.250000
vt 0.757665 0.213734
vt 0.697860 0.600361
vt 0.780670 0.594422
vt 0.734375 0.437500
vt 0.671875 0.500000
vt 0.671875 0.409378
vt 0.643959 0.187500
vt 0.610999 0.812500
vt 0.656250 0.718927
vt 0.641194 0.597425
vt 0.566394 0.125000
vt 0.722304 0.125000
vt 0.613838 0.477896
vt 0.609239 0.716797
vt 0.610005 0.346011
vt 0.564441 0.221968
vt 0.658774 0.286298
vt 0.585732 0.597917
vt 0.546180 0.532847
vt 0.516713 0.849926
vt 0.578286 0.437500
vt 0.547535 0.343092
vt 0.535174 0.750000
vt 0.540053 0.665043
vt 0.498258 0.250000
vt 0.515610 0.468779
vt 0.484414 0.344178
vt 0.492364 0.650275
vt 0.454607 0.158001
vt 0.481568 0.562500
vt 0.468726 0.468896
vt 0.443200 0.726295
vt 0.453125 0.000000
vt 0.624727 0.062500
vt 0.312560 0.062500
vt 0.464386 0.937500
vt 0.364045 0.875000
vt 0.423190 0.375000
vt 0.422131 0.281898
vt 0.421845 0.593425
vt 0.345815 0.157896
vt 0.421860 0.468779
vt 0.367662 0.276737
vt 0.423499 0.812500
vt 0.325424 0.750000
vt 0.383271 0.665313
vt 0.362214 0.520418
vt 0.328755 0.653989
vt 0.325318 0.562500
vt 0.359375 1.000000
vt 0.187785 0.937500
vt 0.374693 0.406705
vt 0.311198 0.469849
vt 0.301311 0.812500
vt 0.320771 0.334687
vt 0.273843 0.215528
vt 0.266285 0.656907
vt 0.262818 0.562500
vt 0.265664 0.344178
vt 0.201338 0.750000
vt 0.213523 0.275683
vt 0.187361 0.125000
vt 0.236019 0.500000
vt 0.204076 0.875000
vt 0.211155 0.400475
vt 0.265786 0.437500
vt 0.176311 0.812500
vt 0.200323 0.687500
vt 0.160177 0.187500
vt 0.210345 0.603472
vt 0.171188 0.472498
vt 0.066076 0.062500
vt 0.171875 0.000000
vt 0.143430 0.375000
vt 0.146933 0.271304
vt 0.140665 0.655822
vt 0.110052 0.750000
vt 0.170314 0.562500
vt 0.108282 0.562500
vt 0.108670 0.467486
vt 0.061981 0.851052
vt 0.102553 0.334957
vt 0.076336 0.284828
vt 0.069711 0.639259
vt 0.057455 0.149472
vt 0.046180 0.532847
vt 0.047645 0.407626
vt 0.045523 0.719815
vt 0.022179 0.277453
vt 0.012557 0.187500
vt 0.000000 0.658651
vt 0.000000 0.531273
vt 0.015625 1.000000
vt 0.000000 0.937500
vt 0.000000 0.437500
vt 1.000000 0.875000
vt 0.895609 0.937500
vt 0.904889 0.875000
vt 1.000000 0.277453
vt 0.987180 0.375000
vt 0.952020 0.282012
vt 1.000000 0.658651
vt 0.962973 0.792731
vt 0.953164 0.655822
vt 1.000000 0.125000
vt 0.985536 0.187500
vt 0.890670 0.125000
vt 1.000000 0.531273
vt 0.950318 0.562500
vt 0.908620 0.035509
vt 0.986986 0.062500
vt 0.923519 0.500000
vt 0.977641 0.460487
vt 0.922645 0.407626
vt 0.878158 0.187500
vt 0.890040 0.283466
vt 0.906295 0.750000
vt 0.890665 0.655822
vt 0.883031 0.535689
vt 0.860089 0.404927
vt 0.828251 0.812500
vt 0.834433 0.271304
vt 0.818831 0.710434
vt 0.836155 0.599525
vt 0.826481 0.500000
vt 0.790511 0.463332
vt 0.796914 0.344178
vt 0.734375 0.533997
vt 0.000000 0.375000
vt 0.000000 0.792731
vn 0.0545 0.9596 -0.2760
vn 0.0845 0.7545 -0.6508
vn 0.0495 -0.6403 -0.7666
vn 0.0574 0.4365 -0.8979
vn 0.3067 -0.1405 -0.9414
vn 0.1633 -0.8250 -0.5410
vn 0.2694 0.8206 -0.5041
vn 0.2759 0.7886 -0.5495
vn 0.4262 0.4818 -0.7656
vn 0.2408 -0.9216 -0.3045
vn 0.6420 0.0738 -0.7631
vn 0.6009 -0.1408 -0.7868
vn 0.4461 0.7391 -0.5047
vn 0.5742 -0.6612 -0.4828
vn 0.6745 0.4470 -0.5876
vn 0.8629 0.0750 -0.4998
vn 0.2631 0.9566 -0.1250
vn 0.8126 -0.3757 -0.4456
vn 0.5897 0.7424 -0.3180
vn 0.7221 0.6113 -0.3239
vn 0.7365 -0.6518 -0.1809
vn 0.9469 -0.1110 -0.3018
vn 0.9395 -0.3276 -0.1004
vn 0.8070 0.5861 -0.0728
vn 0.5540 -0.8302 -0.0624
vn 0.9545 0.2802 -0.1017
vn 0.9986 0.0414 0.0320
vn 0.6325 0.7719 0.0634
vn 0.0582 -0.9981 0.0204
vn 0.3479 0.9304 0.1151
vn 0.9109 -0.3256 0.2533
vn 0.8130 -0.5108 0.2794
vn 0.7605 -0.6249 0.1765
vn 0.8476 0.4513 0.2791
vn 0.2530 -0.9658 0.0563
vn 0.5093 -0.7915 0.3380
vn 0.9306 0.0912 0.3546
vn 0.6787 -0.5031 0.5351
vn 0.5401 0.7041 0.4610
vn 0.7021 0.2775 0.6557
vn 0.8024 0.0908 0.5898
vn 0.5939 0.3015 0.7460
vn 0.0526 0.9966 0.0638
vn 0.5770 -0.1345 0.8056
vn 0.3770 0.8155 0.4391
vn 0.5575 -0.4786 0.6783
vn 0.4953 0.5908 0.6369
vn 0.4878 -0.3002 0.8197
vn 0.3195 -0.6742 0.6659
vn 0.4962 0.0480 0.8669
vn 0.2603 0.3060 0.9158
vn 0.2770 -0.3358 0.9003
vn 0.2546 0.5753 0.7773
vn 0.0565 0.6982 0.7137
vn 0.0433 -0.6361 0.7704
vn 0.0551 -0.9053 0.4212
vn 0.1317 -0.0209 0.9911
vn 0.0568 0.9461 0.3189
vn -0.0899 -0.1748 0.9805
vn -0.0352 -0.3232 0.9457
vn -0.0378 0.8410 0.5397
vn -0.1209 -0.4715 0.8735
vn -0.0686 0.6019 0.7956
vn -0.1293 -0.8068 0.5765
vn -0.3016 0.0826 0.9498
vn -0.0927 -0.9755 0.1995
vn -0.0437 -0.9958 0.0806
vn -0.4356 -0.3111 0.8447
vn -0.3886 -0.5096 0.7677
vn -0.3973 0.6083 0.6871
vn -0.3916 0.4242 0.8165
vn -0.4049 0.7207 0.5628
vn -0.6168 0.2661 0.7408
vn -0.6476 0.0504 0.7603
vn -0.2381 0.9358 0.2601
vn -0.5623 -0.5201 0.6429
vn -0.7170 -0.3120 0.6234
vn -0.6026 -0.6299 0.4900
vn -0.6563 0.5599 0.5058
vn -0.5097 -0.7723 0.3792
vn -0.8673 0.2209 0.4461
vn -0.8709 0.0523 0.4887
vn -0.8108 -0.3033 0.5006
vn -0.8077 -0.4618 0.3665
vn -0.5828 0.7665 0.2698
vn -0.8306 -0.4934 0.2582
vn -0.6005 -0.7776 0.1861
vn -0.8527 0.4913 0.1774
vn -0.9504 0.2876 0.1182
vn -0.0747 0.9972 0.0054
vn -0.9877 -0.1087 0.1127
vn -0.3201 0.9472 -0.0183
vn -0.8316 -0.5499 -0.0778
vn -0.7711 0.6285 -0.1024
vn -0.3916 -0.9187 -0.0519
vn -0.9471 0.3060 -0.0971
vn -0.2599 -0.9634 -0.0659
vn -0.9580 0.0061 -0.2867
vn -0.9260 -0.2909 -0.2404
vn -0.5696 -0.7967 -0.2023
vn -0.7576 -0.4988 -0.4211
vn -0.7216 0.5768 -0.3827
vn -0.8256 0.2751 -0.4927
vn -0.7642 -0.1301 -0.6317
vn -0.4551 0.8154 -0.3578
vn -0.5329 -0.5062 -0.6780
vn -0.4352 0.7246 -0.5344
vn -0.5819 0.1180 -0.8047
vn -0.4463 -0.2159 -0.8685
vn -0.1401 0.9373 -0.3191
vn -0.1569 0.7595 -0.6313
vn -0.1724 -0.6513 -0.7390
vn -0.2449 -0.7943 -0.5559
vn -0.3225 0.4402 -0.8380
vn -0.1512 -0.8954 -0.4188
vn -0.0085 -0.9720 -0.2349
vn -0.3125 0.1030 -0.9443
vn -0.1016 -0.3093 -0.9455
vn 0.0928 0.4664 -0.8797
vn 0.0653 0.3278 -0.9425
vn 0.1590 -0.8308 -0.5334
vn 0.3055 0.1019 -0.9467
vn 0.2694 -0.0519 -0.9616
vn 0.2466 -0.3061 -0.9195
vn 0.3131 -0.4743 -0.8228
vn 0.2391 -0.5651 -0.7896
vn 0.2780 0.7899 -0.5466
vn 0.2925 -0.7599 -0.5804
vn 0.3975 0.4505 -0.7995
vn 0.4658 0.1960 -0.8629
vn 0.2338 -0.9264 -0.2952
vn 0.6453 -0.2783 -0.7114
vn 0.5256 -0.4506 -0.7216
vn 0.5774 0.4945 -0.6497
vn 0.5222 -0.7077 -0.4759
vn 0.7505 0.1505 -0.6435
vn 0.7562 -0.2786 -0.5921
vn 0.8787 0.0148 -0.4771
vn 0.2645 0.9543 -0.1391
vn 0.3496 0.9143 -0.2044
vn 0.6904 -0.6087 -0.3910
vn 0.7570 0.5022 -0.4180
vn 0.4226 -0.8586 -0.2902
vn 0.5416 0.8148 -0.2068
vn 0.9027 0.3118 -0.2965
vn 0.9319 -0.2544 -0.2585
vn 0.9918 0.1098 -0.0649
vn 0.9620 -0.2716 0.0300
vn 0.8102 -0.5805 -0.0815
vn 0.5217 -0.8496 -0.0780
vn 0.9453 0.3010 -0.1255
vn 0.7639 0.6441 0.0384
vn 0.2733 -0.9615 0.0294
vn 0.6237 0.7780 0.0753
vn 0.9047 -0.2489 0.3458
vn 0.3705 0.9197 0.1297
vn 0.6230 -0.7566 0.1986
vn 0.9078 0.3436 0.2405
vn 0.9412 0.1205 0.3156
vn 0.7690 0.4902 0.4103
vn 0.8101 -0.2559 0.5275
vn 0.7575 -0.0745 0.6486
vn 0.6756 -0.4924 0.5487
vn 0.5455 0.6946 0.4691
vn 0.5031 -0.7797 0.3728
vn 0.2686 -0.9478 0.1717
vn 0.6118 0.3117 0.7270
vn 0.1092 0.9777 0.1793
vn 0.3567 0.8364 0.4161
vn 0.3325 -0.7570 0.5625
vn 0.2817 0.3327 0.9000
vn 0.2714 0.1215 0.9548
vn 0.2537 -0.3198 0.9129
vn 0.2083 -0.6185 0.7577
vn 0.0716 0.9215 0.3818
vn 0.0570 0.6929 0.7188
vn 0.0586 -0.9225 0.3814
vn 0.1454 0.0371 0.9887
vn -0.0444 0.3334 0.9417
vn -0.1052 0.1881 0.9765
vn -0.0388 0.8318 0.5538
vn -0.1174 0.4692 0.8753
vn -0.1137 -0.8320 0.5430
vn -0.2967 0.0795 0.9517
vn -0.2613 -0.0903 0.9610
vn -0.3693 -0.4779 0.7970
vn -0.2999 -0.7356 0.6075
vn -0.4157 0.3860 0.8236
vn -0.4359 0.6563 0.6158
vn -0.6318 0.0770 0.7713
vn -0.6272 -0.2006 0.7526
vn -0.2758 0.9055 0.3225
vn -0.4200 0.8229 0.3826
vn -0.4988 -0.7775 0.3831
vn -0.3167 -0.8917 0.3233
vn -0.7216 0.3798 0.5788
vn -0.2477 -0.9447 0.2147
vn -0.6807 0.6159 0.3966
vn -0.6005 -0.7702 0.2148
vn -0.9026 -0.0801 0.4231
vn -0.9302 0.3236 0.1733
vn -0.9866 -0.0917 0.1352
vn -0.2434 0.9684 0.0539
vn -0.9699 -0.2353 0.0620
vn -0.8851 -0.4493 0.1210
vn -0.6142 0.7833 0.0957
vn -0.7545 0.6560 -0.0189
vn -0.4236 0.9045 -0.0484
vn -0.6773 -0.7317 -0.0764
vn -0.9488 0.2934 -0.1168
vn -0.3399 -0.9398 -0.0343
vn -0.9811 0.0649 -0.1824
vn -0.4813 -0.8613 -0.1630
vn -0.9362 -0.1186 -0.3307
vn -0.8562 -0.4416 -0.2681
vn -0.7191 0.6417 -0.2667
vn -0.5860 -0.7388 -0.3330
vn -0.8341 0.3296 -0.4424
vn -0.8473 0.2073 -0.4890
vn -0.7820 -0.1148 -0.6126
vn -0.7022 -0.4350 -0.5637
vn -0.4259 0.8449 -0.3237
vn -0.5157 0.6303 -0.5804
vn -0.4521 -0.7228 -0.5227
vn -0.5096 0.4970 -0.7023
vn -0.6545 0.3066 -0.6911
vn -0.6352 -0.0664 -0.7695
vn -0.3671 0.1589 -0.9165
vn -0.4103 -0.2825 -0.8671
vn -0.1456 0.9340 -0.3262
vn -0.4672 -0.4766 -0.7446
vn -0.1496 -0.8861 -0.4386
vn -0.0990 -0.9560 -0.2763
vn -0.1217 0.0699 -0.9901
vn -0.0500 -0.0521 -0.9974
vn -0.0485 0.9611 -0.2719
vn -0.0961 -0.3043 -0.9477
vn -0.1087 0.7829 -0.6126
vn -0.0708 -0.6125 -0.7873
vn -0.1840 0.4990 -0.8469
usemtl None
s off
f 75/1/1 20/2/1 1/3/1
f 1/3/2 8/4/2 2/5/2
f 6/6/3 10/7/3 7/8/3
f 2/5/4 9/9/4 3/10/4
f 5/11/5 12/12/5 13/13/5
f 10/7/6 14/14/6 7/8/6
f 20/2/7 16/15/7 1/3/7
f 1/3/8 11/16/8 8/4/8
f 8/4/9 17/17/9 9/9/9
f 14/14/10 32/18/10 15/19/10
f 12/12/11 17/17/11 22/20/11
f 12/12/12 22/20/12 13/13/12
f 16/15/13 21/21/13 11/16/13
f 18/22/14 28/23/14 19/24/14
f 21/21/15 23/25/15 17/17/15
f 23/25/16 26/26/16 22/20/16
f 75/1/17 33/27/17 20/2/17
f 24/28/18 27/29/18 18/22/18
f 16/15/19 30/30/19 21/21/19
f 21/21/20 30/30/20 25/31/20
f 28/23/21 27/29/21 38/32/21
f 26/26/22 31/33/22 24/28/22
f 31/33/23 37/34/23 27/29/23
f 30/30/24 34/35/24 25/31/24
f 28/23/25 38/32/25 45/36/25
f 26/26/26 34/35/26 35/37/26
f 35/37/27 36/38/27 31/33/27
f 33/27/28 39/39/28 30/30/28
f 120/40/29 29/41/29 70/42/29
f 40/43/30 49/44/30 33/27/30
f 36/38/31 43/45/31 37/34/31
f 37/34/32 43/45/32 44/46/32
f 37/34/33 44/46/33 38/32/33
f 39/39/34 41/47/34 34/35/34
f 45/36/35 70/42/35 29/41/35
f 45/36/36 44/46/36 59/48/36
f 41/47/37 42/49/37 36/38/37
f 43/45/38 48/50/38 44/46/38
f 46/51/39 55/52/39 39/39/39
f 41/47/40 47/53/40 50/54/40
f 41/47/41 50/54/41 42/49/41
f 50/54/42 52/55/42 53/56/42
f 40/43/43 75/57/43 85/58/43
f 51/59/44 50/54/44 56/60/44
f 49/44/45 60/61/45 46/51/45
f 48/50/46 51/59/46 54/62/46
f 47/53/47 55/52/47 52/55/47
f 56/60/48 54/62/48 51/59/48
f 54/62/49 58/63/49 48/50/49
f 53/56/50 56/60/50 50/54/50
f 53/56/51 61/64/51 62/65/51
f 56/60/52 57/66/52 54/62/52
f 55/52/53 61/64/53 52/55/53
f 55/52/54 60/61/54 73/67/54
f 57/66/55 69/68/55 58/63/55
f 58/63/56 81/69/56 59/48/56
f 62/65/57 64/70/57 56/60/57
f 85/58/58 71/71/58 49/44/58
f 64/70/59 65/72/59 63/73/59
f 63/73/60 65/72/60 57/66/60
f 71/71/61 72/74/61 60/61/61
f 57/66/62 65/72/62 69/68/62
f 61/64/63 73/67/63 66/75/63
f 69/68/64 80/76/64 58/63/64
f 67/77/65 74/78/65 64/70/65
f 70/42/66 81/69/66 99/79/66
f 120/80/67 70/42/67 99/79/67
f 74/78/68 78/81/68 65/72/68
f 69/68/69 78/81/69 79/82/69
f 66/75/70 73/67/70 76/83/70
f 66/75/71 76/83/71 67/77/71
f 73/67/72 72/74/72 82/84/72
f 68/85/73 76/83/73 77/86/73
f 74/78/74 77/86/74 83/87/74
f 85/58/75 92/88/75 71/71/75
f 79/82/76 78/81/76 84/89/76
f 83/87/77 84/89/77 78/81/77
f 84/89/78 86/90/78 79/82/78
f 76/83/79 82/84/79 89/91/79
f 79/82/80 87/92/80 80/76/80
f 77/86/81 89/91/81 90/93/81
f 77/86/82 90/93/82 83/87/82
f 83/87/83 91/94/83 84/89/83
f 84/89/84 91/94/84 86/90/84
f 82/84/85 92/88/85 88/95/85
f 86/90/86 91/94/86 95/96/86
f 95/96/87 98/97/87 87/92/87
f 88/95/88 93/98/88 89/91/88
f 90/93/89 93/98/89 94/99/89
f 85/58/90 75/100/90 121/101/90
f 91/94/91 94/99/91 96/102/91
f 92/103/92 121/104/92 107/105/92
f 95/106/93 97/107/93 102/108/93
f 93/109/94 103/110/94 100/111/94
f 87/112/95 98/113/95 114/114/95
f 94/115/96 100/111/96 101/116/96
f 114/114/97 120/117/97 99/118/97
f 101/116/98 104/119/98 96/120/98
f 96/120/99 105/121/99 97/107/99
f 102/108/100 106/122/100 98/113/100
f 102/108/101 105/121/101 111/123/101
f 100/111/102 108/124/102 109/125/102
f 101/116/103 109/125/103 110/126/103
f 105/121/104 110/126/104 113/127/104
f 107/105/105 115/128/105 103/110/105
f 111/123/106 113/127/106 119/129/106
f 115/128/107 116/130/107 108/124/107
f 110/126/108 112/131/108 117/132/108
f 117/132/109 122/133/109 113/127/109
f 107/105/110 121/104/110 1/3/110
f 115/128/111 2/5/111 116/130/111
f 118/134/112 7/8/112 119/129/112
f 119/129/113 7/8/113 106/122/113
f 116/130/114 3/10/114 112/131/114
f 106/122/115 15/19/115 114/114/115
f 120/117/116 15/19/116 29/41/116
f 3/10/117 122/133/117 117/132/117
f 122/133/118 6/6/118 118/134/118
f 2/5/119 8/4/119 9/9/119
f 3/10/120 9/9/120 4/135/120
f 7/8/121 14/14/121 15/19/121
f 4/135/122 9/9/122 12/12/122
f 5/11/123 4/135/123 12/12/123
f 6/6/124 5/11/124 13/13/124
f 6/6/125 13/13/125 19/24/125
f 10/7/126 6/6/126 19/24/126
f 1/3/127 16/15/127 11/16/127
f 10/7/128 19/24/128 14/14/128
f 8/4/129 11/16/129 17/17/129
f 9/9/130 17/17/130 12/12/130
f 15/19/131 32/18/131 29/41/131
f 13/13/132 22/20/132 18/22/132
f 19/24/133 13/13/133 18/22/133
f 11/16/134 21/21/134 17/17/134
f 14/14/135 19/24/135 28/23/135
f 22/20/136 17/17/136 23/25/136
f 22/20/137 24/28/137 18/22/137
f 22/20/138 26/26/138 24/28/138
f 75/1/139 40/43/139 33/27/139
f 20/2/140 33/27/140 16/15/140
f 28/23/141 18/22/141 27/29/141
f 21/21/142 25/31/142 23/25/142
f 32/18/143 14/14/143 28/23/143
f 30/30/144 16/15/144 33/27/144
f 26/26/145 23/25/145 25/31/145
f 24/28/146 31/33/146 27/29/146
f 26/26/147 35/37/147 31/33/147
f 31/33/148 36/38/148 37/34/148
f 27/29/149 37/34/149 38/32/149
f 32/18/150 28/23/150 45/36/150
f 26/26/151 25/31/151 34/35/151
f 34/35/152 30/30/152 39/39/152
f 29/41/153 32/18/153 45/36/153
f 33/27/154 46/51/154 39/39/154
f 36/38/155 42/49/155 43/45/155
f 46/51/156 33/27/156 49/44/156
f 38/32/157 44/46/157 45/36/157
f 35/37/158 34/35/158 41/47/158
f 35/37/159 41/47/159 36/38/159
f 39/39/160 47/53/160 41/47/160
f 42/49/161 51/59/161 43/45/161
f 42/49/162 50/54/162 51/59/162
f 43/45/163 51/59/163 48/50/163
f 39/39/164 55/52/164 47/53/164
f 59/48/165 44/46/165 48/50/165
f 70/42/166 45/36/166 59/48/166
f 50/54/167 47/53/167 52/55/167
f 40/43/168 85/58/168 49/44/168
f 55/52/169 46/51/169 60/61/169
f 59/48/170 48/50/170 58/63/170
f 53/56/171 52/55/171 61/64/171
f 53/56/172 62/65/172 56/60/172
f 56/60/173 63/73/173 57/66/173
f 54/62/174 57/66/174 58/63/174
f 60/61/175 49/44/175 71/71/175
f 55/52/176 73/67/176 61/64/176
f 70/42/177 59/48/177 81/69/177
f 56/60/178 64/70/178 63/73/178
f 62/65/179 61/64/179 67/77/179
f 62/65/180 67/77/180 64/70/180
f 73/67/181 60/61/181 72/74/181
f 61/64/182 66/75/182 67/77/182
f 81/69/183 58/63/183 80/76/183
f 67/77/184 68/85/184 74/78/184
f 65/72/185 64/70/185 74/78/185
f 69/68/186 65/72/186 78/81/186
f 80/76/187 69/68/187 79/82/187
f 68/85/188 67/77/188 76/83/188
f 76/83/189 73/67/189 82/84/189
f 74/78/190 68/85/190 77/86/190
f 74/78/191 83/87/191 78/81/191
f 71/71/192 92/88/192 72/74/192
f 82/84/193 72/74/193 92/88/193
f 79/82/194 86/90/194 87/92/194
f 81/69/195 80/76/195 87/92/195
f 77/86/196 76/83/196 89/91/196
f 81/69/197 87/92/197 99/79/197
f 89/91/198 82/84/198 88/95/198
f 86/90/199 95/96/199 87/92/199
f 83/87/200 90/93/200 91/94/200
f 90/93/201 89/91/201 93/98/201
f 91/94/202 90/93/202 94/99/202
f 92/88/203 85/58/203 121/101/203
f 91/94/204 96/102/204 97/136/204
f 95/96/205 91/94/205 97/136/205
f 88/95/206 92/88/206 103/137/206
f 88/95/207 103/137/207 93/98/207
f 92/103/208 107/105/208 103/110/208
f 95/106/209 102/108/209 98/113/209
f 94/115/210 93/109/210 100/111/210
f 87/112/211 114/114/211 99/118/211
f 94/115/212 101/116/212 96/120/212
f 114/114/213 98/113/213 106/122/213
f 96/120/214 104/119/214 105/121/214
f 102/108/215 97/107/215 105/121/215
f 103/110/216 108/124/216 100/111/216
f 102/108/217 111/123/217 106/122/217
f 101/116/218 100/111/218 109/125/218
f 101/116/219 110/126/219 104/119/219
f 105/121/220 104/119/220 110/126/220
f 111/123/221 105/121/221 113/127/221
f 103/110/222 115/128/222 108/124/222
f 109/125/223 108/124/223 116/130/223
f 106/122/224 111/123/224 119/129/224
f 109/125/225 116/130/225 112/131/225
f 110/126/226 109/125/226 112/131/226
f 110/126/227 117/132/227 113/127/227
f 112/131/228 3/10/228 117/132/228
f 113/127/229 122/133/229 118/134/229
f 115/128/230 107/105/230 1/3/230
f 119/129/231 113/127/231 118/134/231
f 106/122/232 7/8/232 15/19/232
f 120/117/233 114/114/233 15/19/233
f 122/133/234 3/10/234 4/135/234
f 122/133/235 4/135/235 5/11/235
f 1/3/236 121/104/236 75/1/236
f 122/133/237 5/11/237 6/6/237
f 2/5/238 115/128/238 1/3/238
f 118/134/239 6/6/239 7/8/239
f 3/10/240 116/130/240 2/5/240
